<svg width="32" height="32" viewBox="0 0 32 32" fill="none" xmlns="http://www.w3.org/2000/svg">
    <path
        d="M15.4434 0.0954685C15.2933 0.151752 15.0494 0.314346 14.9056 0.458181C14.4053 0.952221 14.4366 0.508211 14.4366 7.88128V14.4351H7.88274C0.509674 14.4351 0.953684 14.4101 0.459644 14.9041C-0.153215 15.517 -0.153215 16.4801 0.459644 17.0929C0.953684 17.587 0.509674 17.562 7.88274 17.562H14.4366V24.1158C14.4366 31.4889 14.4116 31.0449 14.9056 31.5389C15.5185 32.1517 16.4815 32.1517 17.0944 31.5389C17.5884 31.0449 17.5634 31.4889 17.5634 24.1158V17.562H24.1173C31.4903 17.562 31.0463 17.587 31.5404 17.0929C32.1532 16.4801 32.1532 15.517 31.5404 14.9041C31.0463 14.4101 31.4903 14.4351 24.1173 14.4351H17.5634V7.88128C17.5634 0.508211 17.5884 0.952221 17.0944 0.458181C16.6629 0.0204239 16.0375 -0.110901 15.4434 0.0954685Z"
        fill="currentColor" />
</svg>